# xmcd
#
# Track frame offsets:
#	150
#	19917
#	40728
#	60957
#	78383
#	100870
#	123332
#	150108
#
# Disc length: 2376 seconds
#
# Revision: 7
# Processed by: cddbd v1.5.2PL0 Copyright (c) Steve Scherf et al.
# Submitted via: audiograbber 1.83.01
#
DISCID=4e094608
DTITLE=Foghat - The Complete Bearsville Albums Collection [CD 10) - Tight Shoes
DTITLE=[remastered 2016]
DYEAR=1980
DGENRE=Rock
TTITLE0=Stranger In My Home Town
TTITLE1=Loose Ends
TTITLE2=Full Time Lover
TTITLE3=Baby Can I Change Your Mind
TTITLE4=Too Late The Hero
TTITLE5=Dead End Street
TTITLE6=Be My Woman
TTITLE7=No Hard Feelings
EXTD=
EXTT0=
EXTT1=
EXTT2=
EXTT3=
EXTT4=
EXTT5=
EXTT6=
EXTT7=
PLAYORDER=
